<?xml version="1.0" encoding="UTF-8" ?>
<!DOCTYPE svg PUBLIC "-//W3C//DTD SVG 1.1//EN" "http://www.w3.org/Graphics/SVG/1.1/DTD/svg11.dtd">
<svg width="344pt" height="341pt" viewBox="0 0 344 341" version="1.1" xmlns="http://www.w3.org/2000/svg">
<path fill="#ffffff" d=" M 0.00 0.00 L 344.00 0.00 L 344.00 341.00 L 186.30 341.00 C 190.71 340.30 196.20 342.06 199.81 338.66 C 201.64 336.99 201.68 334.36 201.67 332.08 C 201.58 310.74 201.73 289.40 201.60 268.07 C 201.71 264.09 197.71 261.36 193.99 261.63 C 182.33 261.54 170.66 261.65 158.99 261.58 C 156.13 261.59 152.80 261.52 150.70 263.80 C 148.51 265.95 149.00 269.26 148.91 272.04 C 149.07 293.03 148.74 314.04 149.07 335.03 C 149.56 340.55 156.19 341.20 160.55 341.00 L 0.00 341.00 L 0.00 0.00 Z" />
<path fill="#000000" d=" M 20.52 0.17 C 21.47 0.99 22.39 1.84 23.30 2.71 C 74.11 53.54 124.95 104.35 175.77 155.18 C 226.68 104.24 277.63 53.35 328.52 2.39 C 329.25 1.65 330.15 1.20 331.22 1.06 C 330.04 3.48 327.84 5.12 326.02 7.02 C 276.29 56.76 226.55 106.49 176.82 156.23 C 228.53 207.94 280.26 259.64 331.95 311.38 L 330.89 312.37 C 279.18 260.67 227.49 208.95 175.78 157.26 C 124.00 209.04 72.23 260.82 20.44 312.59 C 20.19 312.33 19.68 311.81 19.43 311.55 C 71.19 259.76 122.96 207.99 174.74 156.23 C 124.57 106.06 74.43 55.87 24.24 5.73 C 22.79 4.05 20.35 2.72 20.52 0.17 Z" />
<path fill="#000000" d=" M 140.21 25.98 C 146.49 23.93 152.79 21.93 159.09 19.91 C 159.95 22.27 160.80 24.64 161.66 27.00 C 158.47 28.14 155.29 29.30 152.07 30.35 C 148.11 28.91 144.14 27.48 140.21 25.98 Z" />
<path fill="#000000" d=" M 162.64 22.89 C 168.17 27.29 173.67 31.74 179.21 36.13 C 175.17 35.94 171.13 35.70 167.10 35.37 C 165.57 31.22 164.11 27.05 162.64 22.89 Z" />
<path fill="#000000" d=" M 168.63 24.64 C 171.58 23.24 174.61 24.34 177.27 25.81 C 192.16 32.96 207.12 39.97 221.99 47.16 C 224.40 47.93 224.93 51.59 222.77 52.93 C 219.30 55.13 215.53 56.80 211.95 58.82 C 210.94 56.72 209.57 54.71 207.39 53.69 C 197.41 48.44 187.21 43.59 177.24 38.33 C 179.41 37.93 183.35 40.29 184.08 37.21 C 179.08 32.85 173.68 28.95 168.63 24.64 Z" />
<path fill="#000000" d=" M 137.76 27.63 C 146.64 30.87 155.51 34.13 164.38 37.39 C 163.50 41.18 162.62 44.97 161.75 48.76 C 153.75 43.85 145.73 38.96 137.78 33.97 C 137.77 31.86 137.76 29.75 137.76 27.63 Z" />
<path fill="#000000" d=" M 127.93 39.84 C 130.76 38.29 133.93 37.50 136.92 36.32 C 145.71 41.47 154.11 47.28 163.14 51.99 C 163.95 49.58 164.54 47.11 165.11 44.64 C 175.17 49.68 185.21 54.77 195.26 59.85 C 197.29 60.82 198.96 62.38 200.38 64.12 C 197.43 67.21 193.19 68.45 189.60 70.60 C 186.77 71.93 183.56 74.64 180.42 72.52 C 163.43 63.46 146.50 54.29 129.51 45.25 C 127.41 44.44 126.27 41.63 127.93 39.84 Z" />
<path fill="#000000" d=" M 166.72 37.68 C 169.11 37.84 171.60 37.98 173.72 39.20 C 184.03 44.60 194.51 49.67 204.85 55.01 C 206.88 56.11 209.16 57.46 209.57 59.96 C 207.26 61.34 204.89 62.60 202.52 63.86 C 201.58 61.84 200.36 59.82 198.27 58.83 C 187.45 53.16 176.41 47.91 165.62 42.20 C 165.98 40.69 166.35 39.18 166.72 37.68 Z" />
<path fill="#ffffff" d=" M 173.18 41.98 C 174.34 41.11 175.76 41.28 176.79 42.30 C 177.28 43.73 176.05 44.25 175.04 44.80 C 174.12 44.07 173.20 43.27 173.18 41.98 Z" />
<path fill="#000000" d=" M 129.34 55.57 C 126.56 54.50 126.59 51.06 128.80 49.41 C 145.92 58.52 162.97 67.73 180.07 76.86 C 181.40 77.47 182.95 78.40 184.43 77.66 C 197.46 71.28 209.98 63.86 223.10 57.70 C 223.54 58.73 223.93 59.79 224.27 60.87 C 224.09 63.21 221.65 64.02 219.93 65.02 C 208.37 71.03 196.93 77.27 185.34 83.22 C 182.65 84.75 179.93 82.65 177.57 81.48 C 161.58 72.68 145.39 64.26 129.34 55.57 Z" />
<path fill="#ffffff" d=" M 190.47 51.87 C 191.48 49.24 193.52 50.93 194.95 52.17 C 193.71 53.76 191.32 54.02 190.47 51.87 Z" />
<path fill="#000000" d=" M 128.38 60.18 C 129.56 60.17 130.59 60.85 131.62 61.33 C 146.41 69.26 161.14 77.31 175.99 85.15 C 178.31 86.32 180.52 87.86 183.10 88.43 C 185.22 88.10 187.04 86.85 188.94 85.90 C 199.70 80.20 210.45 74.49 221.23 68.83 C 223.14 67.26 224.68 70.39 224.06 71.97 C 223.85 73.27 222.58 73.88 221.58 74.48 C 209.32 81.01 197.08 87.59 184.74 93.96 C 182.86 95.15 180.94 93.59 179.25 92.83 C 162.56 83.79 145.73 75.01 129.11 65.86 C 126.70 64.85 126.45 61.79 128.38 60.18 Z" />
<path fill="#000000" d=" M 265.14 118.11 L 265.98 117.31 C 273.66 123.79 280.29 131.49 287.60 138.41 C 288.96 139.95 292.67 142.42 289.05 143.79 C 281.24 136.68 274.08 128.87 266.49 121.52 C 265.97 120.50 263.16 119.12 265.14 118.11 Z" />
<path fill="#000000" d=" M 276.56 123.19 C 278.53 121.22 280.50 119.25 282.47 117.29 C 290.20 119.72 297.92 122.19 305.65 124.59 C 306.98 125.00 308.37 125.45 309.31 126.54 C 319.97 137.29 330.71 147.97 341.37 158.72 C 343.83 160.91 343.91 165.11 341.46 167.35 C 332.49 176.42 323.45 185.43 314.42 194.46 C 312.17 196.92 307.90 196.83 305.71 194.34 C 294.70 183.26 283.50 172.35 272.66 161.12 C 269.55 152.71 267.11 144.03 264.25 135.53 C 266.26 133.51 268.27 131.49 270.28 129.47 C 274.09 133.32 277.97 137.09 281.71 141.01 C 281.22 145.61 285.25 150.30 290.05 149.39 C 295.17 149.08 298.23 142.73 295.60 138.44 C 294.22 135.59 290.98 134.75 288.08 134.65 C 284.18 130.89 280.40 127.01 276.56 123.19 Z" />
<path fill="#000000" d=" M 43.96 135.09 C 45.73 129.16 52.77 125.72 58.60 127.63 C 63.76 129.14 67.52 134.58 66.70 139.97 C 66.35 143.75 63.73 146.82 60.67 148.84 C 72.46 154.46 84.27 160.05 95.77 166.23 C 100.15 168.63 104.93 171.07 107.53 175.55 C 109.44 178.94 107.74 183.58 104.20 185.10 C 100.66 186.60 96.72 186.40 92.96 186.41 C 65.91 186.38 38.87 186.42 11.82 186.39 C 8.79 186.21 5.39 186.03 3.01 183.90 C 0.25 181.60 -0.01 177.08 2.23 174.33 C 5.47 169.97 10.59 167.76 15.18 165.15 C 26.45 159.23 37.98 153.83 49.41 148.25 C 49.95 146.93 50.14 145.31 51.39 144.43 C 53.64 142.57 57.47 143.61 59.08 140.83 C 60.99 137.87 58.30 133.81 54.90 134.08 C 52.18 133.95 51.13 136.79 49.44 138.35 C 47.15 139.97 43.57 137.93 43.96 135.09 Z" />
<path fill="#ffffff" d=" M 18.64 171.68 C 30.42 165.44 42.54 159.89 54.47 153.97 C 66.26 159.75 78.17 165.27 89.80 171.38 C 93.48 173.48 97.76 175.19 99.93 179.09 C 97.95 179.29 95.96 179.42 93.96 179.41 C 69.97 179.38 45.98 179.41 21.98 179.40 C 17.68 179.36 13.35 179.59 9.06 179.09 C 11.12 175.38 15.13 173.67 18.64 171.68 Z" />
<path fill="#000000" d=" M 150.70 263.80 C 152.80 261.52 156.13 261.59 158.99 261.58 C 170.66 261.65 182.33 261.54 193.99 261.63 C 197.71 261.36 201.71 264.09 201.60 268.07 C 201.73 289.40 201.58 310.74 201.67 332.08 C 201.68 334.36 201.64 336.99 199.81 338.66 C 196.20 342.06 190.71 340.30 186.30 341.00 L 160.55 341.00 C 156.19 341.20 149.56 340.55 149.07 335.03 C 148.74 314.04 149.07 293.03 148.91 272.04 C 149.00 269.26 148.51 265.95 150.70 263.80 Z" />
<path fill="#ffffff" d=" M 165.40 265.01 C 170.90 265.00 176.39 264.99 181.88 265.01 C 181.93 265.80 182.04 267.40 182.09 268.20 C 176.53 268.20 170.98 268.20 165.42 268.20 C 165.41 267.13 165.41 266.07 165.40 265.01 Z" />
<path fill="#ffffff" d=" M 155.59 271.60 C 168.75 271.60 181.90 271.60 195.06 271.60 C 195.06 289.13 195.06 306.67 195.06 324.20 C 181.88 324.20 168.71 324.20 155.53 324.20 C 155.50 306.67 155.63 289.13 155.59 271.60 Z" />
<path fill="#ffffff" d=" M 173.62 329.66 C 176.95 327.46 180.64 333.07 177.09 335.14 C 173.63 337.90 169.60 331.63 173.62 329.66 Z" />
</svg>
