<svg xmlns="http://www.w3.org/2000/svg" width="317pt" height="327pt" viewBox="0 0 317 327" version="1.1">
<path fill="#ffffff" d=" M 0.00 0.00 L 159.50 0.00 C 146.42 0.31 133.56 6.05 124.76 15.77 C 115.33 25.96 110.65 40.33 112.35 54.12 C 113.99 69.43 123.56 83.55 137.05 90.92 C 149.09 97.66 164.07 98.84 177.01 94.07 C 188.66 89.91 198.50 81.06 203.96 69.98 C 210.79 56.48 210.61 39.73 203.61 26.34 C 195.74 10.72 178.94 0.26 161.45 0.00 L 317.00 0.00 L 317.00 155.33 C 315.99 143.24 310.65 131.52 301.73 123.23 C 292.00 113.97 278.28 109.09 264.89 110.18 C 250.81 111.12 237.37 118.68 229.19 130.17 C 221.63 140.51 218.52 153.94 220.69 166.57 C 223.12 181.66 233.26 195.22 246.98 201.93 C 259.82 208.39 275.55 208.64 288.59 202.61 C 304.71 195.46 315.94 178.95 317.00 161.38 L 317.00 327.00 L 162.15 327.00 C 175.24 326.49 188.04 320.59 196.70 310.72 C 206.35 300.03 210.79 284.90 208.34 270.69 C 206.25 257.41 198.26 245.23 186.99 237.92 C 176.25 230.82 162.62 228.37 150.06 231.17 C 137.82 233.82 126.77 241.46 119.95 251.97 C 113.14 262.22 110.56 275.13 112.80 287.22 C 115.29 301.34 124.51 314.05 137.07 320.93 C 143.67 324.63 151.16 326.58 158.69 327.00 L 0.00 327.00 L 0.00 161.10 C 0.72 172.45 5.39 183.52 13.26 191.76 C 23.07 202.29 37.75 208.00 52.10 206.83 C 66.45 205.88 80.11 198.04 88.26 186.20 C 95.98 175.32 98.78 161.16 95.85 148.14 C 92.85 133.95 83.01 121.44 70.00 115.06 C 56.92 108.50 40.85 108.38 27.68 114.73 C 11.93 122.03 1.12 138.30 0.00 155.57 L 0.00 0.00 Z" fill-opacity="0.1"/>
<path fill="#1cbab3" d=" M 159.50 0.00 L 161.45 0.00 C 178.94 0.26 195.74 10.72 203.61 26.34 C 210.61 39.73 210.79 56.48 203.96 69.98 C 198.50 81.06 188.66 89.91 177.01 94.07 C 164.07 98.84 149.09 97.66 137.05 90.92 C 123.56 83.55 113.99 69.43 112.35 54.12 C 110.65 40.33 115.33 25.96 124.76 15.77 C 133.56 6.05 146.42 0.31 159.50 0.00 Z"/>
<path fill="#dcc8ab" d=" M 8.72 6.80 C 11.87 9.10 14.59 11.90 17.29 14.69 C 64.87 62.20 112.48 109.69 160.06 157.20 C 207.08 110.49 253.86 63.54 300.82 16.76 C 304.19 13.36 307.40 9.75 311.39 7.05 C 310.29 8.41 309.21 9.78 308.05 11.09 C 259.00 60.06 209.97 109.06 160.96 158.07 C 208.13 205.23 255.35 252.34 302.52 299.50 C 305.86 302.86 309.39 306.05 312.30 309.80 C 308.60 307.55 305.61 304.43 302.68 301.29 C 255.13 253.86 207.62 206.39 160.06 158.96 C 112.02 206.95 63.99 254.95 15.94 302.93 C 13.51 305.63 10.84 308.10 7.80 310.10 C 10.03 306.94 12.74 304.18 15.57 301.56 C 63.45 253.73 111.36 205.92 159.25 158.09 C 111.30 110.30 63.44 62.39 15.52 14.56 C 12.92 12.28 10.65 9.67 8.72 6.80 Z"/>
<path fill="#9b5e2a" d=" M 154.67 12.90 C 170.62 9.70 187.69 19.08 193.87 34.05 C 198.59 45.14 197.30 58.63 190.25 68.45 C 185.84 74.36 179.92 79.38 172.82 81.66 C 162.02 85.52 149.34 83.78 140.11 76.94 C 134.42 72.53 129.56 66.75 127.33 59.82 C 123.99 50.36 124.88 39.53 129.73 30.75 C 134.96 21.60 144.15 14.59 154.67 12.90 Z"/>
<path fill="#ffffff" d=" M 154.38 14.53 C 171.40 10.64 189.78 22.38 193.98 39.19 C 198.77 55.31 189.24 73.73 173.65 79.69 C 160.86 85.11 145.06 81.37 135.88 71.01 C 126.32 60.96 124.06 44.87 130.56 32.60 C 135.25 23.42 144.22 16.46 154.38 14.53 Z"/>
<path fill="#ffffff" d=" M 27.68 114.73 C 40.85 108.38 56.92 108.50 70.00 115.06 C 83.01 121.44 92.85 133.95 95.85 148.14 C 98.78 161.16 95.98 175.32 88.26 186.20 C 80.11 198.04 66.45 205.88 52.10 206.83 C 37.75 208.00 23.07 202.29 13.26 191.76 C 5.39 183.52 0.72 172.45 0.00 161.10 L 0.00 155.57 C 1.12 138.30 11.93 122.03 27.68 114.73 Z" fill-opacity="0.1"/>
<path fill="#ffffff" d=" M 229.19 130.17 C 237.37 118.68 250.81 111.12 264.89 110.18 C 278.28 109.09 292.00 113.97 301.73 123.23 C 310.65 131.52 315.99 143.24 317.00 155.33 L 317.00 161.38 C 315.94 178.95 304.71 195.46 288.59 202.61 C 275.55 208.64 259.82 208.39 246.98 201.93 C 233.26 195.22 223.12 181.66 220.69 166.57 C 218.52 153.94 221.63 140.51 229.19 130.17 Z" fill-opacity="0.1"/>
<path fill="#dcc8ab" d=" M 45.19 122.21 C 56.12 120.99 67.42 125.11 75.02 133.05 C 86.31 144.58 88.29 163.88 79.33 177.36 C 70.14 192.69 48.70 198.49 32.92 190.19 C 18.28 183.30 10.06 165.67 13.91 150.00 C 16.98 135.28 30.24 123.57 45.19 122.21 Z"/>
<path fill="#7c411f" d=" M 234.60 148.40 C 239.11 130.64 259.71 118.85 277.22 124.30 L 277.30 124.92 C 277.44 128.60 277.71 132.28 277.65 135.97 C 277.25 154.68 277.93 173.40 277.29 192.11 L 277.22 192.69 C 262.32 197.26 244.78 189.57 237.62 175.80 C 237.46 166.58 236.63 157.40 234.60 148.40 Z"/>
<path fill="#9b5e2a" d=" M 277.30 124.92 L 277.86 124.72 C 283.97 125.42 289.21 129.24 293.54 133.38 C 301.10 140.72 304.92 151.59 303.80 162.05 C 302.92 172.30 297.11 181.87 288.69 187.70 C 285.43 189.93 281.87 191.95 277.86 192.28 L 277.29 192.11 C 277.93 173.40 277.25 154.68 277.65 135.97 C 277.71 132.28 277.44 128.60 277.30 124.92 Z"/>
<path fill="#9b5e2a" d=" M 237.62 175.80 C 232.79 167.65 231.69 157.40 234.60 148.40 C 236.63 157.40 237.46 166.58 237.62 175.80 Z"/>
<path fill="#ffffff" d=" M 150.06 231.17 C 162.62 228.37 176.25 230.82 186.99 237.92 C 198.26 245.23 206.25 257.41 208.34 270.69 C 210.79 284.90 206.35 300.03 196.70 310.72 C 188.04 320.59 175.24 326.49 162.15 327.00 L 158.69 327.00 C 151.16 326.58 143.67 324.63 137.07 320.93 C 124.51 314.05 115.29 301.34 112.80 287.22 C 110.56 275.13 113.14 262.22 119.95 251.97 C 126.77 241.46 137.82 233.82 150.06 231.17 Z" fill-opacity="0.1"/>
<path fill="#9b5e2a" d=" M 154.69 242.90 C 170.87 239.65 188.21 249.39 194.14 264.71 C 198.55 275.67 197.15 288.80 190.26 298.43 C 185.85 304.35 179.93 309.37 172.82 311.66 C 161.98 315.54 149.25 313.74 139.99 306.85 C 134.36 302.45 129.54 296.69 127.33 289.80 C 123.99 280.35 124.89 269.53 129.72 260.75 C 134.97 251.60 144.15 244.59 154.69 242.90 Z"/>
<path fill="#140405" d=" M 154.46 244.64 C 170.28 241.20 187.43 250.92 192.84 266.11 C 198.34 280.09 193.03 297.20 180.66 305.70 C 170.26 313.30 155.43 314.06 144.30 307.59 C 132.86 301.25 125.76 287.92 127.17 274.88 C 128.26 260.22 140.04 247.29 154.46 244.64 Z"/>
</svg>