<svg xmlns="http://www.w3.org/2000/svg" width="307pt" height="304pt" viewBox="0 0 307 304" version="1.1">
<path fill="#ffffff" d=" M 0.00 0.00 L 307.00 0.00 L 307.00 304.00 L 304.83 304.00 C 304.73 303.56 304.54 302.68 304.44 302.24 C 254.30 252.21 204.22 202.12 154.08 152.08 C 204.11 102.10 254.15 52.14 304.16 2.15 L 303.10 1.19 C 253.08 51.14 203.08 101.10 153.07 151.06 C 103.50 101.54 53.90 52.05 4.37 2.50 C 3.62 1.87 2.81 1.35 1.92 0.94 C 2.37 3.21 4.41 4.52 5.90 6.09 C 54.62 54.74 103.33 103.42 152.05 152.07 C 103.05 201.04 54.03 249.99 5.02 298.95 C 3.60 300.49 1.45 301.70 1.27 304.00 L 0.00 304.00 L 0.00 0.00 Z"/>
<path fill="#d8d4d4" d=" M 1.92 0.94 C 2.81 1.35 3.62 1.87 4.37 2.50 C 53.90 52.05 103.50 101.54 153.07 151.06 C 203.08 101.10 253.08 51.14 303.10 1.19 L 304.16 2.15 C 254.15 52.14 204.11 102.10 154.08 152.08 C 204.22 202.12 254.30 252.21 304.44 302.24 C 304.54 302.68 304.73 303.56 304.83 304.00 L 303.50 304.00 C 303.28 303.50 302.84 302.50 302.62 302.00 C 301.71 301.39 300.86 300.71 300.08 299.96 C 251.11 250.97 202.07 202.06 153.07 153.09 C 102.71 203.39 52.37 253.73 1.98 304.00 L 1.27 304.00 C 1.45 301.70 3.60 300.49 5.02 298.95 C 54.03 249.99 103.05 201.04 152.05 152.07 C 103.33 103.42 54.62 54.74 5.90 6.09 C 4.41 4.52 2.37 3.21 1.92 0.94 Z"/>
<path class="img1" fill="#d8d4d4" d=" M 176.53 9.43 C 180.08 6.69 183.62 3.35 188.25 2.72 C 187.88 8.67 183.03 13.12 179.71 17.71 C 173.79 24.92 167.91 32.16 162.00 39.37 C 158.99 36.34 156.00 33.29 153.00 30.25 C 160.86 23.33 168.60 16.27 176.53 9.43 Z"/>
<path class="img1" fill="#d8d4d4" d=" M 143.22 38.94 C 145.83 36.59 148.49 34.29 151.09 31.90 C 154.28 34.94 157.29 38.17 160.41 41.29 C 158.23 43.95 156.06 46.63 153.89 49.30 C 150.31 45.86 146.77 42.40 143.22 38.94 Z"/>
<path class="img1" fill="#d8d4d4" d=" M 131.84 45.89 C 133.91 42.64 137.67 41.18 141.29 40.50 C 144.97 43.97 148.48 47.64 152.23 51.03 C 151.10 56.92 147.03 62.48 141.14 64.25 C 133.72 66.57 125.88 64.26 118.92 61.49 C 122.39 61.29 126.49 60.69 128.61 57.59 C 131.14 54.15 129.24 49.32 131.84 45.89 Z"/>
<path fill="#1cbab3" d=" M 11.00 120.00 C 27.00 120.00 43.00 120.00 59.00 120.00 C 59.00 141.33 59.00 162.67 59.00 184.00 C 43.00 184.00 27.00 184.00 11.00 184.00 C 11.00 162.67 11.00 141.33 11.00 120.00 Z"/>
<path fill="#d8d4d4" d=" M 237.54 122.52 C 257.58 142.53 277.60 162.57 297.62 182.60 C 293.61 182.60 289.60 182.61 285.59 182.59 C 285.59 180.92 285.57 179.26 285.58 177.60 C 284.97 177.60 283.74 177.59 283.13 177.59 C 283.13 179.26 283.10 180.93 283.11 182.60 C 282.51 182.60 281.31 182.60 280.71 182.60 C 280.71 180.93 280.69 179.26 280.70 177.60 C 280.10 177.59 278.90 177.59 278.30 177.59 C 278.31 179.26 278.28 180.92 278.29 182.60 C 277.72 182.60 276.58 182.60 276.00 182.61 C 276.01 180.13 275.99 177.65 275.98 175.18 C 275.39 175.19 274.19 175.20 273.59 175.20 C 273.59 177.67 273.58 180.13 273.59 182.59 C 272.97 182.60 271.75 182.61 271.13 182.62 C 271.13 180.94 271.10 179.27 271.11 177.60 C 270.51 177.60 269.31 177.60 268.71 177.60 C 268.71 179.27 268.69 180.94 268.70 182.61 C 268.13 182.61 266.99 182.60 266.42 182.60 C 266.42 180.93 266.40 179.26 266.41 177.60 C 265.79 177.60 264.56 177.60 263.94 177.60 C 263.94 179.27 263.94 180.93 263.94 182.60 C 263.34 182.60 262.13 182.60 261.53 182.60 C 261.53 180.14 261.52 177.68 261.54 175.22 C 260.93 175.21 259.73 175.18 259.13 175.17 C 259.12 177.65 259.10 180.12 259.12 182.60 C 258.50 182.60 257.27 182.60 256.65 182.60 C 256.65 180.93 256.63 179.26 256.64 177.60 C 256.07 177.60 254.93 177.59 254.36 177.59 C 254.36 179.26 254.34 180.93 254.35 182.60 C 253.75 182.60 252.55 182.60 251.94 182.60 C 251.94 180.93 251.94 179.26 251.94 177.60 C 251.34 177.60 250.13 177.60 249.53 177.60 C 249.53 179.26 249.52 180.92 249.53 182.59 C 248.93 182.60 247.73 182.62 247.13 182.62 C 247.12 180.15 247.10 177.67 247.12 175.20 C 246.54 175.20 245.40 175.20 244.82 175.20 C 244.83 177.67 244.82 180.13 244.82 182.60 C 242.39 182.60 239.96 182.60 237.53 182.60 C 237.53 162.57 237.52 142.55 237.54 122.52 Z"/>
<path fill="#ffffff" d=" M 20.00 130.00 C 30.00 130.00 40.00 130.00 50.00 130.00 C 50.00 144.67 50.00 159.33 50.00 174.00 C 40.00 174.00 30.00 174.00 20.00 174.00 C 20.00 159.33 20.00 144.67 20.00 130.00 Z"/>
<path fill="#1cbab3" d=" M 23.00 133.00 C 31.00 133.00 39.00 133.00 47.00 133.00 C 47.00 145.67 47.00 158.33 47.00 171.00 C 39.00 171.00 31.00 171.00 23.00 171.00 C 23.00 158.33 23.00 145.67 23.00 133.00 Z"/>
<path fill="#ffffff" d=" M 247.11 145.55 C 256.21 154.62 265.30 163.70 274.37 172.80 C 265.29 172.80 256.20 172.80 247.12 172.80 C 247.11 163.72 247.12 154.63 247.11 145.55 Z"/>
<path fill="#ffffff" d=" M 1.98 304.00 C 52.37 253.73 102.71 203.39 153.07 153.09 C 202.07 202.06 251.11 250.97 300.08 299.96 C 300.86 300.71 301.71 301.39 302.62 302.00 C 302.84 302.50 303.28 303.50 303.50 304.00 L 1.98 304.00 Z"/>
<path fill="#d8d4d4" d=" M 124.02 241.90 C 123.82 240.35 125.33 238.88 126.87 239.03 C 142.60 239.00 158.35 238.94 174.08 239.06 C 175.67 238.86 176.34 240.45 176.93 241.60 C 178.61 241.60 180.31 241.60 182.00 241.60 C 182.00 248.73 182.00 255.86 182.00 263.00 C 172.33 263.00 162.67 263.00 153.00 263.00 C 153.00 264.80 152.99 266.60 153.00 268.40 C 151.23 268.40 149.47 268.39 147.71 268.40 C 147.71 265.73 147.70 263.07 147.70 260.41 C 158.25 260.39 168.80 260.41 179.35 260.40 C 179.35 255.06 179.35 249.73 179.35 244.40 C 178.69 244.40 177.37 244.40 176.70 244.40 C 176.00 247.71 178.37 252.66 174.99 254.84 C 159.35 255.22 143.67 254.88 128.01 255.01 C 126.47 255.19 124.52 254.75 124.09 253.02 C 123.90 249.32 124.00 245.61 124.02 241.90 Z"/>
<path fill="#ffffff" d=" M 129.30 244.41 C 129.30 243.47 129.30 242.53 129.30 241.59 C 143.34 241.61 157.38 241.59 171.41 241.60 C 171.41 242.30 171.41 243.70 171.41 244.40 C 157.38 244.41 143.34 244.39 129.30 244.41 Z"/>
<path fill="#d8d4d4" d=" M 145.11 271.00 C 148.63 271.00 152.14 270.99 155.65 271.01 C 155.60 279.98 155.73 288.95 155.60 297.92 C 155.53 301.09 152.04 303.86 148.93 302.81 C 146.92 302.11 145.16 300.22 145.15 298.02 C 145.06 289.01 145.15 280.01 145.11 271.00 Z"/>
<path fill="#ffffff" d=" M 149.13 294.15 C 152.05 292.59 154.60 297.18 151.75 298.77 C 148.82 300.83 145.94 295.72 149.13 294.15 Z"/>
</svg>